PathFileType	4	(X/Y/Z)	/Users/itak/Documents/Research/Walk-IL/dataset/trc/00049_00006.trc
DataRate	CameraRate	NumFrames	NumMarkers	Units	OrigDataRate	OrigDataStartFrame	OrigNumFrames
100.000000	100.000000	4	53	mm	100.000000	124	499
Frame#	Time	RPSI			LPSI			L3			STRN			T10			C7			CLAV			RBAK			LBAK			LSHO			LUPA			LAEL			LAOL			LWTS			LWPS			LFRA			LIFD			LHPS			LHTS			RSHO			RUPA			RAEL			RAOL			RWTS			RWPS			RFRA			RIFD			RHTS			RHPS			RBHD			LFHD			RFHD			LBHD			LHIP			RHIP			RASI			LASI			LKNE			LTHI			LANK			LTIP			LTOE			LMT1			LMT5			LHEE			RKNE			RTHI			RANK			RTIP			RTOE			RMT1			RMT5			RHEE			
		X1	Y1	Z1	X2	Y2	Z2	X3	Y3	Z3	X4	Y4	Z4	X5	Y5	Z5	X6	Y6	Z6	X7	Y7	Z7	X8	Y8	Z8	X9	Y9	Z9	X10	Y10	Z10	X11	Y11	Z11	X12	Y12	Z12	X13	Y13	Z13	X14	Y14	Z14	X15	Y15	Z15	X16	Y16	Z16	X17	Y17	Z17	X18	Y18	Z18	X19	Y19	Z19	X20	Y20	Z20	X21	Y21	Z21	X22	Y22	Z22	X23	Y23	Z23	X24	Y24	Z24	X25	Y25	Z25	X26	Y26	Z26	X27	Y27	Z27	X28	Y28	Z28	X29	Y29	Z29	X30	Y30	Z30	X31	Y31	Z31	X32	Y32	Z32	X33	Y33	Z33	X34	Y34	Z34	X35	Y35	Z35	X36	Y36	Z36	X37	Y37	Z37	X38	Y38	Z38	X39	Y39	Z39	X40	Y40	Z40	X41	Y41	Z41	X42	Y42	Z42	X43	Y43	Z43	X44	Y44	Z44	X45	Y45	Z45	X46	Y46	Z46	X47	Y47	Z47	X48	Y48	Z48	X49	Y49	Z49	X50	Y50	Z50	X51	Y51	Z51	X52	Y52	Z52	X53	Y53	Z53	

125	1.24	938.246826171875	1027.552001953125	-203.2797241210938	922.0591430664062	1021.800598144531	-379.4594421386719	936.7484130859375	1075.130737304688	-298.5122375488281	1178.139526367188	1272.764404296875	-304.0823059082031	914.0904541015625	1209.353759765625	-303.1997680664062	969.0374755859375	1476.832885742188	-309.6949768066406	1148.063598632812	1387.124633789062	-307.5501098632812	907.5753784179688	1338.900390625	-232.6094970703125	947.4846801757812	1437.694580078125	-410.7373352050781	1052.035888671875	1440.6083984375	-483.1880187988281	1037.82470703125	1311.632690429688	-558.9282836914062	1063.22265625	1096.4697265625	-572.8389892578125	1000.646057128906	1081.796997070312	-487.6107177734375	1160.079711914062	860.3890991210938	-505.5562744140625	1102.69482421875	847.4446411132812	-565.9924926757812	1086.211547851562	987.9234619140625	-578.4323120117188	1176.026489257812	674.4768676757812	-480.78857421875	1137.558227539062	767.4949340820312	-560.3258056640625	1184.085327148438	778.483642578125	-507.3290100097656	1034.856323242188	1441.45947265625	-133.1734924316406	1026.023681640625	1372.119140625	-68.86336517333984	1003.661254882812	1105.3095703125	-41.6603889465332	1018.078857421875	1084.307861328125	-137.8984527587891	1147.300537109375	856.053955078125	-87.43863677978516	1081.471069335938	840.390380859375	-32.85953903198242	1018.981018066406	1025.754150390625	-35.41311264038086	1148.379272460938	669.754150390625	-114.1440353393555	1171.801391601562	754.2030029296875	-91.06200408935547	1119.171142578125	749.61962890625	-34.28271484375	1007.359130859375	1653.664306640625	-375.0176086425781	1165.165405273438	1688.755737304688	-230.7531433105469	1179.86767578125	1696.768920898438	-355.7991638183594	1000.057434082031	1638.342041015625	-238.6379089355469	1025.826049804688	952.8089599609375	-469.2931213378906	1006.256713867188	956.4720458984375	-126.8628311157227	1129.96630859375	967.9573974609375	-152.080078125	1139.565307617188	959.1871337890625	-420.6173400878906	1067.095092773438	487.9179382324219	-434.3660583496094	1044.02880859375	631.7005615234375	-467.2272033691406	965.2090454101562	38.920166015625	-458.9290466308594	1007.246704101562	255.9423370361328	-462.3463134765625	1171.59814453125	29.79806900024414	-474.090576171875	1128.083251953125	31.29433250427246	-414.8919372558594	1063.3466796875	28.18008422851562	-507.8185424804688	922.87353515625	35.4780158996582	-379.3091125488281	1062.668823242188	507.4378967285156	-148.0892181396484	1082.666381835938	778.0164184570312	-116.8682174682617	979.3900146484375	34.90897369384766	-156.12109375	1039.17138671875	387.3831176757812	-144.4954376220703	1198.416015625	27.48193740844727	-185.4093322753906	1138.327026367188	33.62811660766602	-227.2513427734375	1104.5771484375	35.89390182495117	-135.6857147216797	934.9495239257812	35.6603889465332	-213.6881103515625	
126	1.25	937.215087890625	1027.737060546875	-203.0011444091797	921.2369995117188	1021.721618652344	-379.1665344238281	936.0106811523438	1075.492065429688	-298.21923828125	1177.858032226562	1272.8232421875	-303.6746215820312	913.7343139648438	1209.746337890625	-302.8920593261719	969.004150390625	1477.107299804688	-309.4578857421875	1147.893920898438	1387.1962890625	-307.1974182128906	907.2404174804688	1339.299072265625	-232.3467102050781	947.4739990234375	1437.97705078125	-410.5118408203125	1052.104858398438	1440.802734375	-482.8643798828125	1037.848754882812	1311.906616210938	-558.7259521484375	1063.045654296875	1096.700927734375	-572.6929931640625	1000.263793945312	1082.058715820312	-487.578369140625	1159.705688476562	860.5919189453125	-505.458740234375	1102.363403320312	847.6779174804688	-565.91650390625	1085.971801757812	988.1578369140625	-578.3141479492188	1175.56787109375	674.63720703125	-480.6571044921875	1137.183471679688	767.7178344726562	-560.2857055664062	1183.670288085938	778.6275024414062	-507.2312316894531	1034.547119140625	1441.702392578125	-132.9719390869141	1025.767822265625	1372.335327148438	-68.60523986816406	1003.248657226562	1105.636962890625	-41.09701156616211	1017.598754882812	1084.5263671875	-137.298828125	1146.9697265625	856.3992919921875	-87.01512908935547	1081.224365234375	840.6534423828125	-32.32175445556641	1018.577758789062	1025.994018554688	-34.77833557128906	1148.205078125	670.1376953125	-113.7315139770508	1171.537353515625	754.5411376953125	-90.64894866943359	1119.0576171875	749.9276123046875	-33.75989532470703	1007.512390136719	1653.811401367188	-374.7817077636719	1165.221435546875	1688.840698242188	-230.4066467285156	1180.013793945312	1696.9013671875	-355.4745483398438	1000.182006835938	1638.486694335938	-238.3905487060547	1025.494018554688	952.854248046875	-468.9059143066406	1005.468872070312	956.5335693359375	-126.4937438964844	1129.104370117188	968.2509155273438	-151.5805816650391	1138.885498046875	959.2918701171875	-420.0237731933594	1068.1044921875	488.0766296386719	-434.1322631835938	1044.493041992188	631.7242431640625	-466.9216003417969	965.3157348632812	38.97357559204102	-458.9071655273438	1008.010009765625	255.9341888427734	-462.1652526855469	1171.6875	29.6720027923584	-474.0396423339844	1128.171142578125	31.19559669494629	-414.8504333496094	1063.38134765625	28.12985038757324	-507.8263549804688	922.8401489257812	35.65545654296875	-379.3247375488281	1063.2919921875	507.5629272460938	-147.9527282714844	1082.20947265625	778.0875244140625	-116.3978729248047	979.4972534179688	34.94472122192383	-156.1681671142578	1039.82470703125	387.3292541503906	-144.5605163574219	1198.462890625	27.46637725830078	-185.4869995117188	1138.362915039062	33.55729293823242	-227.3133239746094	1104.6015625	35.94081497192383	-135.7551116943359	935.0172119140625	35.78084945678711	-213.7550811767578	
127	1.26	936.1187133789062	1027.903076171875	-202.6873779296875	920.4317626953125	1021.626708984375	-378.8192138671875	935.2050170898438	1075.877685546875	-297.8777160644531	1177.542602539062	1272.878295898438	-303.20458984375	913.3388061523438	1210.174926757812	-302.5311584472656	968.9681396484375	1477.40380859375	-309.1605224609375	1147.700073242188	1387.271362304688	-306.790771484375	906.8710327148438	1339.738159179688	-232.0169372558594	947.4331665039062	1438.2744140625	-410.2226257324219	1052.140258789062	1441.008544921875	-482.4811096191406	1037.831298828125	1312.205200195312	-558.4791259765625	1062.809814453125	1096.94970703125	-572.5211791992188	999.8462524414062	1082.343994140625	-487.5221252441406	1159.304809570312	860.8283081054688	-505.3501586914062	1101.98876953125	847.9266967773438	-565.8101196289062	1085.677734375	988.4088745117188	-578.173828125	1175.103515625	674.8441772460938	-480.5185241699219	1136.7841796875	767.975341796875	-560.232177734375	1183.249389648438	778.8180541992188	-507.1262817382812	1034.272705078125	1441.965698242188	-132.6860656738281	1025.514282226562	1372.584716796875	-68.27158355712891	1002.851806640625	1105.993774414062	-40.44847869873047	1017.093872070312	1084.77001953125	-136.61767578125	1146.632080078125	856.7787475585938	-86.58912658691406	1081.007934570312	840.9505004882812	-31.74170875549316	1018.189453125	1026.26025390625	-34.06506729125977	1147.978149414062	670.5255737304688	-113.3221130371094	1171.255249023438	754.9068603515625	-90.25640869140625	1118.981811523438	750.2696533203125	-33.20637893676758	1007.664306640625	1653.95166015625	-374.5059204101562	1165.296752929688	1688.940673828125	-230.0437164306641	1180.16650390625	1697.031127929688	-355.1269836425781	1000.330932617188	1638.646606445312	-238.0994720458984	1025.140502929688	952.9038696289062	-468.4860229492188	1004.514770507812	956.5916137695312	-126.0967864990234	1128.139038085938	968.5628662109375	-151.0324554443359	1138.133178710938	959.4200439453125	-419.3815307617188	1069.286743164062	488.2900085449219	-433.8998413085938	1045.043090820312	631.7325439453125	-466.5748596191406	965.4336547851562	39.04076385498047	-458.8760681152344	1008.857055664062	255.9178619384766	-461.9668884277344	1171.7734375	29.54851913452148	-473.992431640625	1128.261108398438	31.10328102111816	-414.8101501464844	1063.41748046875	28.08724784851074	-507.8247375488281	922.7872314453125	35.86698150634766	-379.33203125	1063.985473632812	507.6922302246094	-147.7699432373047	1081.716064453125	778.1700439453125	-115.897819519043	979.626708984375	34.97843551635742	-156.2117156982422	1040.546020507812	387.2677612304688	-144.6041107177734	1198.5087890625	27.44942092895508	-185.5645904541016	1138.397583007812	33.48633193969727	-227.3776245117188	1104.626953125	35.98994827270508	-135.8281555175781	935.091796875	35.90946960449219	-213.8173828125	
128	1.27	934.9598999023438	1028.048706054688	-202.3394317626953	919.6294555664062	1021.514709472656	-378.4185485839844	934.3255004882812	1076.281616210938	-297.48583984375	1177.188720703125	1272.923095703125	-302.6680603027344	912.8997802734375	1210.635009765625	-302.1111450195312	968.9291381835938	1477.719116210938	-308.7925720214844	1147.480712890625	1387.347534179688	-306.3241882324219	906.4661865234375	1340.218627929688	-231.6113891601562	947.3623657226562	1438.585693359375	-409.8590698242188	1052.138793945312	1441.224365234375	-482.033203125	1037.762451171875	1312.5244140625	-558.1802368164062	1062.505126953125	1097.216674804688	-572.3226928710938	999.39501953125	1082.646606445312	-487.4378967285156	1158.868774414062	861.0961303710938	-505.22314453125	1101.56494140625	848.189697265625	-565.6683349609375	1085.319213867188	988.6749877929688	-578.009765625	1174.623657226562	675.0969848632812	-480.3641967773438	1136.3525390625	768.2638549804688	-560.156494140625	1182.81298828125	779.0543823242188	-507.0055847167969	1034.035278320312	1442.2490234375	-132.3090972900391	1025.262084960938	1372.869506835938	-67.85558319091797	1002.47314453125	1106.380737304688	-39.70535659790039	1016.563781738281	1085.039916992188	-135.84716796875	1146.28076171875	857.1883544921875	-86.16230010986328	1080.822387695312	841.2817993164062	-31.11807632446289	1017.816101074219	1026.55322265625	-33.2640495300293	1147.695922851562	670.919677734375	-112.9179763793945	1170.95068359375	755.2998046875	-89.88702392578125	1118.934204101562	750.6448974609375	-32.63066101074219	1007.814575195312	1654.079345703125	-374.1837158203125	1165.393310546875	1689.057373046875	-229.6630554199219	1180.3212890625	1697.153442382812	-354.7549743652344	1000.504089355469	1638.818237304688	-237.757568359375	1024.738647460938	952.9569091796875	-468.0335388183594	1003.376525878906	956.643798828125	-125.6770706176758	1127.061767578125	968.8854370117188	-150.4384918212891	1137.309204101562	959.5734252929688	-418.6939697265625	1070.637329101562	488.5550231933594	-433.6654663085938	1045.68505859375	631.7324829101562	-466.1886901855469	965.561279296875	39.12350845336914	-458.8377380371094	1009.785705566406	255.8885040283203	-461.7530212402344	1171.855346679688	29.4300422668457	-473.9501953125	1128.350952148438	31.02088737487793	-414.7725830078125	1063.455932617188	28.05233764648438	-507.8133544921875	922.7158203125	36.10962295532227	-379.3305053710938	1064.745483398438	507.8231811523438	-147.5385131835938	1081.184204101562	778.2525634765625	-115.3747634887695	979.7755737304688	35.01119613647461	-156.2517700195312	1041.330932617188	387.1966247558594	-144.6231689453125	1198.552368164062	27.43042182922363	-185.6398315429688	1138.43017578125	33.41623306274414	-227.4434509277344	1104.653686523438	36.04099655151367	-135.9047088623047	935.172119140625	36.04285049438477	-213.8755645751953	
